<svg width="681" height="773" viewBox="0 0 681 773" fill="none" xmlns="http://www.w3.org/2000/svg">
<path d="M180.196 29.7955C273.342 -22.8217 416.822 -7.76146 474.189 91.078C485.829 111.14 492.069 132.226 494.273 155.237L493.703 155.564C493.146 148.731 489.576 124.81 485.272 120.39C485.388 122.824 487.666 127.702 488.199 130.546C490.654 143.587 495.565 165.405 491.762 178.017C490.311 194.242 487.911 210.067 483.3 225.719C475.34 252.725 460.921 279.812 467.638 309.061C469.995 310.824 472.022 316.816 473.161 319.646C479.816 336.173 490.991 348.846 506.586 357.451C508.086 358.281 512.599 360.684 513.909 361.701C520.767 364.143 529.027 367.232 536.014 369.022C546.607 371.735 556.477 373.804 566.984 376.959C610.629 390.069 648.488 416.949 668.755 458.69C671.639 464.623 676.88 478.351 677.56 484.89C676.078 480.353 674.982 476.998 673.035 472.669C676.874 486.813 682.373 506.645 680.181 521.402C679.55 536.079 678.901 546.531 675.607 561.19C665.498 606.114 636.756 648.07 602.871 678.74C529.242 745.016 424.96 776.323 326.912 772.006C246.413 768.461 162.946 736.29 107.424 676.664C84.3073 651.841 65.4054 614.944 78.145 580.679C78.7708 567.343 91.3757 554.136 101.763 546.782C117.602 535.559 136.995 533.122 155.815 536.471C173.108 539.122 190.979 548.062 207.634 553.628C276.857 578.683 357.796 562.071 395.165 495.575C397.933 490.646 402.127 481.725 406.291 478.443C407.093 474.904 411.14 465.897 412.408 461.525C415.414 451.165 417.6 441.545 419.051 430.861C426.142 377.703 411.942 323.898 379.551 281.159C335.943 223.622 262.885 196.652 192.35 212.049C169.156 217.238 146.514 230.495 122.393 226.5C85.3378 220.363 70.7282 190.315 75.9714 155.705C74.6176 149.564 76.2579 143.785 78.3202 137.966C92.2225 98.7355 143.081 47.1151 180.196 29.7955Z" fill="white"/>
<path d="M180.196 29.7955C273.342 -22.8217 416.823 -7.76146 474.189 91.078C485.829 111.14 492.069 132.226 494.273 155.237L493.704 155.564C493.146 148.731 489.577 124.81 485.272 120.39C485.389 122.824 487.666 127.702 488.199 130.546C490.654 143.587 495.565 165.405 491.763 178.017C491.793 148.914 488.487 125.455 474.722 99.338C436.471 26.7437 351.465 -3.35594 273.279 4.56422C238.854 8.0513 210.559 17.542 180.085 33.2495L179.845 32.4663C177.54 33.4099 175.344 34.4073 173.08 35.4329C175.47 32.9268 178.28 32.9568 180.196 29.7955Z" fill="white"/>
<path d="M506.317 360.984C510.223 361.786 511.423 362.365 514.859 363.735L515.103 363.571L514.381 362.42L514.044 362.703C513.799 361.83 513.701 362.153 513.909 361.701C520.767 364.143 529.027 367.232 536.014 369.022C546.607 371.735 556.477 373.804 566.984 376.959C610.629 390.069 648.488 416.949 668.755 458.69C671.639 464.623 676.88 478.351 677.56 484.89C676.078 480.353 674.982 476.998 673.035 472.669C676.874 486.813 682.373 506.646 680.181 521.402C678.497 508.109 679.183 501.27 675.521 486.782C661.83 429.85 613.991 392.732 559.306 378.176C542.798 373.782 520.743 370.227 506.317 360.984Z" fill="white"/>
<path d="M207.634 553.628C276.857 578.683 357.797 562.071 395.166 495.575C397.933 490.646 402.127 481.725 406.291 478.443C398.398 498.557 382.662 519.877 366.467 533.856C319.46 574.434 256.669 574.832 201.094 554.295C203.201 554.381 205.517 553.94 207.634 553.628Z" fill="white"/>
<path d="M75.9713 155.705C74.6175 149.564 76.2578 143.785 78.3201 137.966C92.2225 98.7354 143.08 47.1151 180.196 29.7954C178.28 32.9567 175.47 32.9267 173.08 35.4329C175.344 34.4073 177.539 33.4098 179.845 32.4663L180.085 33.2494C136.293 58.6399 86.1778 104.191 75.9713 155.705Z" fill="white"/>
<path d="M78.145 580.679C78.7708 567.343 91.3757 554.136 101.763 546.782C117.602 535.558 136.995 533.121 155.815 536.471C157.353 537.94 158.296 538.822 159.975 540.114C121.817 533.409 94.3552 544.039 78.145 580.679Z" fill="white"/>
<path d="M467.638 309.061C469.995 310.824 472.022 316.816 473.161 319.646C479.816 336.173 490.991 348.846 506.586 357.451C508.087 358.281 512.599 360.684 513.91 361.701C513.701 362.153 513.799 361.83 514.044 362.702L514.381 362.42L515.104 363.571L514.859 363.735C511.424 362.365 510.224 361.786 506.317 360.984C488.168 354.296 470.479 327.817 467.638 309.061Z" fill="white"/>
<path d="M155.815 536.471C173.108 539.122 190.979 548.062 207.634 553.628C205.517 553.94 203.201 554.381 201.094 554.295C188.79 549.391 172.702 543.065 159.975 540.114C158.296 538.822 157.353 537.94 155.815 536.471Z" fill="white"/>
<path d="M4.50703 363.619C1.63777 349.523 28.3557 326.891 40.0856 321.545C56.4758 314.076 75.8742 312.894 92.8534 318.724C113.647 325.553 132.361 343.461 138.185 364.667C140.546 373.263 142.696 379.808 142.278 389.01L141.552 388.985C141.242 386.143 140.684 377.689 139.924 375.787C139.983 381.08 141.72 387.601 139.23 391.514C138.623 399.296 136.776 406.932 133.76 414.126C126.583 431.173 112.802 444.582 95.5653 451.293C77.9597 458.182 58.3348 457.777 41.0267 450.173C24.0996 442.543 10.8891 428.515 4.29457 411.157C-1.1029 396.963 -1.82543 377.539 4.50703 363.619Z" fill="white"/>
<path d="M4.50704 363.619C1.63778 349.523 28.3557 326.891 40.0856 321.545C56.4758 314.076 75.8742 312.894 92.8534 318.724C94.5587 320.404 96.2481 322.101 97.9203 323.814C58.1958 309.081 21.0638 324.314 4.50704 363.619Z" fill="white"/>
<path d="M92.8535 318.724C113.647 325.553 132.361 343.461 138.185 364.667C140.546 373.263 142.696 379.808 142.278 389.01L141.553 388.985C141.242 386.143 140.684 377.689 139.924 375.787C139.983 381.08 141.72 387.601 139.23 391.514C139.628 382.803 138.454 374.09 135.765 365.793C129.495 346.508 115.812 332.825 97.9204 323.814C96.2481 322.101 94.5588 320.405 92.8535 318.724Z" fill="white"/>
</svg>
