<svg width="1254" height="1254" viewBox="0 0 1254 1254" fill="none" xmlns="http://www.w3.org/2000/svg">
<g clip-path="url(#clip0_1_43)">
<path d="M238.882 0H1015.07C1031.43 2.08345 1040.8 2.0184 1057.95 5.75277C1115.06 18.4377 1165.95 50.6899 1201.8 96.9291C1225.08 127.013 1241.21 162.002 1248.96 199.245C1250.3 205.884 1251.37 212.576 1252.16 219.303C1252.52 222.341 1253.25 230.413 1254 233.005V1020.64L1253.87 1021.28C1252.82 1026.47 1252.49 1032.41 1251.76 1037.76C1250.48 1047.21 1248.67 1056.59 1246.34 1065.83C1231.1 1125.41 1194.45 1177.28 1143.39 1211.56C1116.15 1229.85 1085.57 1242.6 1053.4 1249.08C1047.87 1250.19 1042.8 1251.1 1037.23 1251.91C1033.09 1252.52 1025.26 1252.85 1021.67 1254H232.84C229.845 1253.07 220.803 1252.2 217.32 1251.77C211.053 1251.05 204.828 1250 198.669 1248.64C160.936 1240.72 125.541 1224.19 95.2452 1200.34C49.6176 1164.4 17.9313 1113.69 5.62976 1056.92C2.15339 1040.76 1.8502 1030.86 0 1015.16V238.16C0.585387 236.087 1.15059 223.77 1.51179 220.713C2.22717 214.658 3.15475 209.463 4.27285 203.447C11.803 163.719 28.8486 126.408 53.95 94.7076C89.3793 49.9638 139.044 18.6805 194.701 6.04967C212.048 2.21308 221.952 1.96948 238.882 0Z" fill="white"/>
<path d="M473.506 255.687C566.652 203.07 710.132 218.13 767.499 316.969C779.139 337.031 785.379 358.117 787.583 381.128L787.013 381.455C786.456 374.623 782.887 350.701 778.582 346.282C778.698 348.716 780.976 353.594 781.509 356.437C783.964 369.478 788.875 391.296 785.072 403.908C783.621 420.133 781.221 435.958 776.61 451.611C768.65 478.616 754.231 505.704 760.948 534.952C763.305 536.716 765.332 542.707 766.471 545.538C773.126 562.065 784.301 574.737 799.896 583.342C801.396 584.172 805.909 586.575 807.219 587.592C814.077 590.035 822.337 593.124 829.324 594.913C839.917 597.626 849.787 599.695 860.294 602.851C903.939 615.96 941.798 642.84 962.065 684.581C964.949 690.514 970.19 704.242 970.87 710.782C969.388 706.244 968.292 702.889 966.345 698.56C970.184 712.704 975.683 732.537 973.491 747.293C972.86 761.97 972.211 772.422 968.917 787.081C958.808 832.006 930.066 873.961 896.181 904.631C822.552 970.907 718.27 1002.21 620.222 997.897C539.723 994.352 456.256 962.182 400.734 902.556C377.617 877.733 358.715 840.835 371.455 806.571C372.081 793.235 384.686 780.027 395.074 772.673C410.912 761.45 430.305 759.013 449.125 762.362C466.418 765.013 484.289 773.953 500.944 779.519C570.167 804.575 651.106 787.963 688.475 721.466C691.243 716.537 695.437 707.616 699.601 704.334C700.403 700.795 704.45 691.788 705.718 687.416C708.724 677.056 710.91 667.437 712.361 656.752C719.452 603.594 705.252 549.79 672.861 507.05C629.253 449.513 556.195 422.543 485.66 437.941C462.466 443.129 439.824 456.387 415.703 452.392C378.648 446.254 364.038 416.206 369.281 381.596C367.928 375.455 369.568 369.677 371.63 363.857C385.533 324.627 436.391 273.006 473.506 255.687Z" fill="black"/>
<path d="M473.506 255.687C566.652 203.07 710.133 218.13 767.5 316.969C779.139 337.031 785.379 358.117 787.583 381.128L787.014 381.455C786.456 374.623 782.887 350.701 778.582 346.282C778.699 348.716 780.976 353.594 781.509 356.437C783.964 369.478 788.875 391.296 785.073 403.908C785.103 374.805 781.797 351.347 768.032 325.229C729.782 252.635 644.775 222.535 566.589 230.456C532.165 233.943 503.869 243.433 473.396 259.141L473.155 258.358C470.85 259.301 468.654 260.299 466.39 261.324C468.78 258.818 471.59 258.848 473.506 255.687Z" fill="black"/>
<path d="M799.627 586.876C803.533 587.677 804.734 588.256 808.169 589.626L808.414 589.463L807.691 588.312L807.354 588.594C807.109 587.721 807.011 588.044 807.219 587.592C814.077 590.035 822.337 593.124 829.324 594.913C839.917 597.626 849.787 599.695 860.294 602.851C903.939 615.96 941.798 642.84 962.065 684.581C964.949 690.514 970.191 704.242 970.87 710.782C969.388 706.244 968.292 702.889 966.345 698.56C970.184 712.704 975.683 732.537 973.491 747.293C971.807 734 972.493 727.161 968.831 712.674C955.14 655.742 907.301 618.624 852.616 604.067C836.108 599.673 814.053 596.118 799.627 586.876Z" fill="black"/>
<path d="M500.944 779.519C570.167 804.574 651.107 787.963 688.476 721.466C691.243 716.537 695.437 707.616 699.601 704.334C691.709 724.448 675.972 745.769 659.777 759.748C612.77 800.325 549.979 800.723 494.404 780.186C496.511 780.272 498.827 779.831 500.944 779.519Z" fill="black"/>
<path d="M369.281 381.596C367.928 375.455 369.568 369.677 371.63 363.857C385.533 324.627 436.391 273.006 473.506 255.687C471.59 258.848 468.78 258.818 466.39 261.324C468.654 260.299 470.849 259.301 473.155 258.358L473.395 259.141C429.603 284.531 379.488 330.082 369.281 381.596Z" fill="black"/>
<path d="M371.455 806.571C372.081 793.235 384.686 780.027 395.074 772.673C410.912 761.45 430.305 759.013 449.125 762.362C450.663 763.832 451.606 764.713 453.285 766.005C415.127 759.301 387.665 769.93 371.455 806.571Z" fill="black"/>
<path d="M760.948 534.952C763.305 536.716 765.332 542.707 766.471 545.538C773.127 562.064 784.301 574.737 799.896 583.342C801.397 584.172 805.909 586.575 807.22 587.592C807.011 588.044 807.109 587.721 807.354 588.594L807.691 588.312L808.414 589.463L808.169 589.626C804.734 588.256 803.534 587.677 799.627 586.876C781.478 580.187 763.789 553.708 760.948 534.952Z" fill="black"/>
<path d="M449.125 762.362C466.418 765.013 484.289 773.953 500.944 779.519C498.827 779.831 496.511 780.272 494.404 780.186C482.1 775.282 466.012 768.957 453.285 766.005C451.606 764.713 450.663 763.832 449.125 762.362Z" fill="black"/>
<path d="M297.817 589.51C294.948 575.414 321.666 552.783 333.396 547.437C349.786 539.967 369.184 538.785 386.163 544.616C406.957 551.444 425.671 569.353 431.495 590.558C433.856 599.154 436.006 605.699 435.588 614.901L434.863 614.876C434.552 612.034 433.994 603.581 433.234 601.678C433.293 606.971 435.03 613.493 432.54 617.405C431.933 625.188 430.086 632.823 427.07 640.018C419.893 657.064 406.112 670.474 388.875 677.184C371.27 684.073 351.645 683.669 334.337 676.064C317.41 668.435 304.199 654.407 297.605 637.048C292.207 622.855 291.485 603.431 297.817 589.51Z" fill="black"/>
<path d="M297.817 589.51C294.948 575.414 321.666 552.783 333.396 547.437C349.786 539.967 369.184 538.785 386.163 544.616C387.869 546.296 389.558 547.993 391.23 549.706C351.506 534.972 314.374 550.205 297.817 589.51Z" fill="black"/>
<path d="M386.164 544.616C406.957 551.444 425.671 569.353 431.495 590.558C433.856 599.154 436.006 605.699 435.588 614.901L434.863 614.876C434.552 612.034 433.994 603.581 433.234 601.678C433.293 606.971 435.03 613.493 432.54 617.405C432.938 608.694 431.764 599.981 429.075 591.685C422.805 572.399 409.122 558.716 391.23 549.706C389.558 547.993 387.869 546.296 386.164 544.616Z" fill="black"/>
</g>
<defs>
<clipPath id="clip0_1_43">
<rect width="1254" height="1254" fill="white"/>
</clipPath>
</defs>
</svg>
